<mxfile host="app.diagrams.net" agent="Mozilla/5.0 (Windows NT 10.0; Win64; x64) AppleWebKit/537.36 (KHTML, like Gecko) Chrome/137.0.0.0 Safari/537.36" version="27.0.4">
  <diagram name="第 1 页" id="WUzVLggUJ8nQuLEllC1n">
    <mxGraphModel dx="2243" dy="1192" grid="0" gridSize="10" guides="1" tooltips="1" connect="1" arrows="1" fold="1" page="0" pageScale="1" pageWidth="827" pageHeight="1169" math="0" shadow="0">
      <root>
        <mxCell id="0" />
        <mxCell id="1" parent="0" />
        <mxCell id="_7BOQMNdC7mZ4Bw1jB4Z-25" value="" style="rounded=0;whiteSpace=wrap;html=1;dashed=1;fillColor=none;strokeWidth=4;strokeColor=light-dark(#8c2626, #ededed);" vertex="1" parent="1">
          <mxGeometry x="-10" y="280" width="860" height="130" as="geometry" />
        </mxCell>
        <mxCell id="_7BOQMNdC7mZ4Bw1jB4Z-20" value="" style="edgeStyle=none;curved=1;rounded=0;orthogonalLoop=1;jettySize=auto;html=1;fontSize=12;startSize=8;endSize=8;entryX=0.5;entryY=0;entryDx=0;entryDy=0;" edge="1" parent="1" source="_7BOQMNdC7mZ4Bw1jB4Z-5" target="_7BOQMNdC7mZ4Bw1jB4Z-13">
          <mxGeometry relative="1" as="geometry">
            <mxPoint x="130" y="350" as="targetPoint" />
          </mxGeometry>
        </mxCell>
        <mxCell id="_7BOQMNdC7mZ4Bw1jB4Z-5" value="委托单导入" style="swimlane;fontStyle=0;childLayout=stackLayout;horizontal=1;startSize=30;horizontalStack=0;resizeParent=1;resizeParentMax=0;resizeLast=0;collapsible=1;marginBottom=0;whiteSpace=wrap;html=1;" vertex="1" parent="1">
          <mxGeometry x="40" y="150" width="180" height="120" as="geometry">
            <mxRectangle x="40" y="60" width="100" height="30" as="alternateBounds" />
          </mxGeometry>
        </mxCell>
        <mxCell id="_7BOQMNdC7mZ4Bw1jB4Z-6" value="手动填入" style="text;strokeColor=none;fillColor=none;align=left;verticalAlign=middle;spacingLeft=4;spacingRight=4;overflow=hidden;points=[[0,0.5],[1,0.5]];portConstraint=eastwest;rotatable=0;whiteSpace=wrap;html=1;" vertex="1" parent="_7BOQMNdC7mZ4Bw1jB4Z-5">
          <mxGeometry y="30" width="180" height="30" as="geometry" />
        </mxCell>
        <mxCell id="_7BOQMNdC7mZ4Bw1jB4Z-7" value="自动识别" style="text;strokeColor=none;fillColor=none;align=left;verticalAlign=middle;spacingLeft=4;spacingRight=4;overflow=hidden;points=[[0,0.5],[1,0.5]];portConstraint=eastwest;rotatable=0;whiteSpace=wrap;html=1;" vertex="1" parent="_7BOQMNdC7mZ4Bw1jB4Z-5">
          <mxGeometry y="60" width="180" height="30" as="geometry" />
        </mxCell>
        <mxCell id="_7BOQMNdC7mZ4Bw1jB4Z-8" value="历史导入" style="text;strokeColor=none;fillColor=none;align=left;verticalAlign=middle;spacingLeft=4;spacingRight=4;overflow=hidden;points=[[0,0.5],[1,0.5]];portConstraint=eastwest;rotatable=0;whiteSpace=wrap;html=1;" vertex="1" parent="_7BOQMNdC7mZ4Bw1jB4Z-5">
          <mxGeometry y="90" width="180" height="30" as="geometry" />
        </mxCell>
        <mxCell id="_7BOQMNdC7mZ4Bw1jB4Z-22" style="edgeStyle=none;curved=1;rounded=0;orthogonalLoop=1;jettySize=auto;html=1;exitX=1;exitY=0.5;exitDx=0;exitDy=0;entryX=0;entryY=0.5;entryDx=0;entryDy=0;fontSize=12;startSize=8;endSize=8;" edge="1" parent="1" source="_7BOQMNdC7mZ4Bw1jB4Z-13" target="_7BOQMNdC7mZ4Bw1jB4Z-21">
          <mxGeometry relative="1" as="geometry" />
        </mxCell>
        <mxCell id="_7BOQMNdC7mZ4Bw1jB4Z-13" value="识别试验项" style="swimlane;whiteSpace=wrap;html=1;" vertex="1" parent="1">
          <mxGeometry x="30" y="330" width="200" height="60" as="geometry" />
        </mxCell>
        <mxCell id="_7BOQMNdC7mZ4Bw1jB4Z-24" style="edgeStyle=none;curved=1;rounded=0;orthogonalLoop=1;jettySize=auto;html=1;exitX=1;exitY=0.5;exitDx=0;exitDy=0;entryX=0;entryY=0.5;entryDx=0;entryDy=0;fontSize=12;startSize=8;endSize=8;" edge="1" parent="1" source="_7BOQMNdC7mZ4Bw1jB4Z-21" target="_7BOQMNdC7mZ4Bw1jB4Z-23">
          <mxGeometry relative="1" as="geometry" />
        </mxCell>
        <mxCell id="_7BOQMNdC7mZ4Bw1jB4Z-21" value="自动结构化" style="swimlane;whiteSpace=wrap;html=1;" vertex="1" parent="1">
          <mxGeometry x="313" y="330" width="200" height="60" as="geometry" />
        </mxCell>
        <mxCell id="_7BOQMNdC7mZ4Bw1jB4Z-23" value="创建试验项" style="swimlane;whiteSpace=wrap;html=1;startSize=23;" vertex="1" parent="1">
          <mxGeometry x="610" y="330" width="200" height="60" as="geometry" />
        </mxCell>
        <mxCell id="_7BOQMNdC7mZ4Bw1jB4Z-29" style="edgeStyle=none;curved=1;rounded=0;orthogonalLoop=1;jettySize=auto;html=1;exitX=0.5;exitY=1;exitDx=0;exitDy=0;entryX=0.5;entryY=0;entryDx=0;entryDy=0;fontSize=12;startSize=8;endSize=8;" edge="1" parent="1" source="_7BOQMNdC7mZ4Bw1jB4Z-25" target="_7BOQMNdC7mZ4Bw1jB4Z-35">
          <mxGeometry relative="1" as="geometry">
            <mxPoint x="420" y="450" as="targetPoint" />
          </mxGeometry>
        </mxCell>
        <mxCell id="_7BOQMNdC7mZ4Bw1jB4Z-26" value="&lt;font style=&quot;font-size: 19px;&quot;&gt;需要算法或者AI来实现&lt;/font&gt;" style="text;html=1;align=center;verticalAlign=middle;whiteSpace=wrap;rounded=0;" vertex="1" parent="1">
          <mxGeometry x="309" y="280" width="210" height="40" as="geometry" />
        </mxCell>
        <mxCell id="_7BOQMNdC7mZ4Bw1jB4Z-35" value="实验计划生成" style="swimlane;fontStyle=0;childLayout=stackLayout;horizontal=1;startSize=30;horizontalStack=0;resizeParent=1;resizeParentMax=0;resizeLast=0;collapsible=1;marginBottom=0;whiteSpace=wrap;html=1;" vertex="1" parent="1">
          <mxGeometry x="270.5" y="440" width="299" height="90" as="geometry" />
        </mxCell>
        <mxCell id="_7BOQMNdC7mZ4Bw1jB4Z-37" value="mdb数据库报错" style="text;strokeColor=none;fillColor=none;align=left;verticalAlign=middle;spacingLeft=4;spacingRight=4;overflow=hidden;points=[[0,0.5],[1,0.5]];portConstraint=eastwest;rotatable=0;whiteSpace=wrap;html=1;" vertex="1" parent="_7BOQMNdC7mZ4Bw1jB4Z-35">
          <mxGeometry y="30" width="299" height="30" as="geometry" />
        </mxCell>
        <mxCell id="_7BOQMNdC7mZ4Bw1jB4Z-103" value="试验计划四个状态与样件管理共享状态" style="text;strokeColor=none;fillColor=none;align=left;verticalAlign=middle;spacingLeft=4;spacingRight=4;overflow=hidden;points=[[0,0.5],[1,0.5]];portConstraint=eastwest;rotatable=0;whiteSpace=wrap;html=1;" vertex="1" parent="_7BOQMNdC7mZ4Bw1jB4Z-35">
          <mxGeometry y="60" width="299" height="30" as="geometry" />
        </mxCell>
        <mxCell id="_7BOQMNdC7mZ4Bw1jB4Z-61" value="" style="edgeStyle=none;curved=1;rounded=0;orthogonalLoop=1;jettySize=auto;html=1;fontSize=12;startSize=8;endSize=8;" edge="1" parent="1" source="_7BOQMNdC7mZ4Bw1jB4Z-41" target="_7BOQMNdC7mZ4Bw1jB4Z-57">
          <mxGeometry relative="1" as="geometry">
            <Array as="points">
              <mxPoint x="740" y="820" />
            </Array>
          </mxGeometry>
        </mxCell>
        <mxCell id="_7BOQMNdC7mZ4Bw1jB4Z-41" value="样件管理" style="swimlane;fontStyle=0;childLayout=stackLayout;horizontal=1;startSize=30;horizontalStack=0;resizeParent=1;resizeParentMax=0;resizeLast=0;collapsible=1;marginBottom=0;whiteSpace=wrap;html=1;" vertex="1" parent="1">
          <mxGeometry x="600" y="550" width="230" height="120" as="geometry" />
        </mxCell>
        <mxCell id="_7BOQMNdC7mZ4Bw1jB4Z-42" value="展示在DashBoard看板" style="text;strokeColor=none;fillColor=none;align=left;verticalAlign=middle;spacingLeft=4;spacingRight=4;overflow=hidden;points=[[0,0.5],[1,0.5]];portConstraint=eastwest;rotatable=0;whiteSpace=wrap;html=1;" vertex="1" parent="_7BOQMNdC7mZ4Bw1jB4Z-41">
          <mxGeometry y="30" width="230" height="30" as="geometry" />
        </mxCell>
        <mxCell id="_7BOQMNdC7mZ4Bw1jB4Z-43" value="通过实验计划生成样件管理" style="text;strokeColor=none;fillColor=none;align=left;verticalAlign=middle;spacingLeft=4;spacingRight=4;overflow=hidden;points=[[0,0.5],[1,0.5]];portConstraint=eastwest;rotatable=0;whiteSpace=wrap;html=1;" vertex="1" parent="_7BOQMNdC7mZ4Bw1jB4Z-41">
          <mxGeometry y="60" width="230" height="30" as="geometry" />
        </mxCell>
        <mxCell id="_7BOQMNdC7mZ4Bw1jB4Z-44" value="试验样件一共八个状态" style="text;strokeColor=none;fillColor=none;align=left;verticalAlign=middle;spacingLeft=4;spacingRight=4;overflow=hidden;points=[[0,0.5],[1,0.5]];portConstraint=eastwest;rotatable=0;whiteSpace=wrap;html=1;" vertex="1" parent="_7BOQMNdC7mZ4Bw1jB4Z-41">
          <mxGeometry y="90" width="230" height="30" as="geometry" />
        </mxCell>
        <mxCell id="_7BOQMNdC7mZ4Bw1jB4Z-46" style="edgeStyle=none;curved=1;rounded=0;orthogonalLoop=1;jettySize=auto;html=1;exitX=1;exitY=0.5;exitDx=0;exitDy=0;entryX=0.5;entryY=0;entryDx=0;entryDy=0;fontSize=12;startSize=8;endSize=8;" edge="1" parent="1" source="_7BOQMNdC7mZ4Bw1jB4Z-37" target="_7BOQMNdC7mZ4Bw1jB4Z-41">
          <mxGeometry relative="1" as="geometry">
            <Array as="points">
              <mxPoint x="730" y="480" />
            </Array>
          </mxGeometry>
        </mxCell>
        <mxCell id="_7BOQMNdC7mZ4Bw1jB4Z-62" value="" style="edgeStyle=none;curved=1;rounded=0;orthogonalLoop=1;jettySize=auto;html=1;fontSize=12;startSize=8;endSize=8;entryX=0.5;entryY=0;entryDx=0;entryDy=0;" edge="1" parent="1" source="_7BOQMNdC7mZ4Bw1jB4Z-47" target="_7BOQMNdC7mZ4Bw1jB4Z-57">
          <mxGeometry relative="1" as="geometry">
            <mxPoint x="105" y="710" as="targetPoint" />
          </mxGeometry>
        </mxCell>
        <mxCell id="_7BOQMNdC7mZ4Bw1jB4Z-66" value="" style="edgeStyle=none;curved=1;rounded=0;orthogonalLoop=1;jettySize=auto;html=1;fontSize=12;startSize=8;endSize=8;startArrow=classic;startFill=1;" edge="1" parent="1" source="_7BOQMNdC7mZ4Bw1jB4Z-47" target="_7BOQMNdC7mZ4Bw1jB4Z-64">
          <mxGeometry relative="1" as="geometry" />
        </mxCell>
        <mxCell id="_7BOQMNdC7mZ4Bw1jB4Z-110" value="" style="edgeStyle=orthogonalEdgeStyle;rounded=0;orthogonalLoop=1;jettySize=auto;html=1;fontSize=12;startSize=8;endSize=8;startArrow=classic;startFill=1;" edge="1" parent="1" source="_7BOQMNdC7mZ4Bw1jB4Z-47" target="_7BOQMNdC7mZ4Bw1jB4Z-107">
          <mxGeometry relative="1" as="geometry" />
        </mxCell>
        <mxCell id="_7BOQMNdC7mZ4Bw1jB4Z-47" value="工位分配" style="swimlane;fontStyle=0;childLayout=stackLayout;horizontal=1;startSize=30;horizontalStack=0;resizeParent=1;resizeParentMax=0;resizeLast=0;collapsible=1;marginBottom=0;whiteSpace=wrap;html=1;" vertex="1" parent="1">
          <mxGeometry x="-10" y="550" width="230" height="120" as="geometry" />
        </mxCell>
        <mxCell id="_7BOQMNdC7mZ4Bw1jB4Z-48" value="根据试验员装卸压缩机情况来分配工位" style="text;strokeColor=none;fillColor=none;align=left;verticalAlign=middle;spacingLeft=4;spacingRight=4;overflow=hidden;points=[[0,0.5],[1,0.5]];portConstraint=eastwest;rotatable=0;whiteSpace=wrap;html=1;" vertex="1" parent="_7BOQMNdC7mZ4Bw1jB4Z-47">
          <mxGeometry y="30" width="230" height="30" as="geometry" />
        </mxCell>
        <mxCell id="_7BOQMNdC7mZ4Bw1jB4Z-49" value="有摄像头识别模块，识别在位的压缩机" style="text;strokeColor=none;fillColor=none;align=left;verticalAlign=middle;spacingLeft=4;spacingRight=4;overflow=hidden;points=[[0,0.5],[1,0.5]];portConstraint=eastwest;rotatable=0;whiteSpace=wrap;html=1;" vertex="1" parent="_7BOQMNdC7mZ4Bw1jB4Z-47">
          <mxGeometry y="60" width="230" height="30" as="geometry" />
        </mxCell>
        <mxCell id="_7BOQMNdC7mZ4Bw1jB4Z-63" value="用户根据委托单列表选择委托单" style="text;strokeColor=none;fillColor=none;align=left;verticalAlign=middle;spacingLeft=4;spacingRight=4;overflow=hidden;points=[[0,0.5],[1,0.5]];portConstraint=eastwest;rotatable=0;whiteSpace=wrap;html=1;" vertex="1" parent="_7BOQMNdC7mZ4Bw1jB4Z-47">
          <mxGeometry y="90" width="230" height="30" as="geometry" />
        </mxCell>
        <mxCell id="_7BOQMNdC7mZ4Bw1jB4Z-51" style="edgeStyle=none;curved=1;rounded=0;orthogonalLoop=1;jettySize=auto;html=1;exitX=0;exitY=0.5;exitDx=0;exitDy=0;entryX=0.5;entryY=0;entryDx=0;entryDy=0;fontSize=12;startSize=8;endSize=8;" edge="1" parent="1" source="_7BOQMNdC7mZ4Bw1jB4Z-37" target="_7BOQMNdC7mZ4Bw1jB4Z-47">
          <mxGeometry relative="1" as="geometry">
            <Array as="points">
              <mxPoint x="90" y="470" />
            </Array>
          </mxGeometry>
        </mxCell>
        <mxCell id="_7BOQMNdC7mZ4Bw1jB4Z-73" value="" style="edgeStyle=none;curved=1;rounded=0;orthogonalLoop=1;jettySize=auto;html=1;fontSize=12;startSize=8;endSize=8;" edge="1" parent="1" source="_7BOQMNdC7mZ4Bw1jB4Z-57" target="_7BOQMNdC7mZ4Bw1jB4Z-71">
          <mxGeometry relative="1" as="geometry" />
        </mxCell>
        <mxCell id="_7BOQMNdC7mZ4Bw1jB4Z-57" value="设备运行计划" style="swimlane;fontStyle=0;childLayout=stackLayout;horizontal=1;startSize=30;horizontalStack=0;resizeParent=1;resizeParentMax=0;resizeLast=0;collapsible=1;marginBottom=0;whiteSpace=wrap;html=1;" vertex="1" parent="1">
          <mxGeometry x="-10" y="740" width="230" height="60" as="geometry" />
        </mxCell>
        <mxCell id="_7BOQMNdC7mZ4Bw1jB4Z-58" value="根据装载样件和委托单输出设备运行计划" style="text;strokeColor=none;fillColor=none;align=left;verticalAlign=middle;spacingLeft=4;spacingRight=4;overflow=hidden;points=[[0,0.5],[1,0.5]];portConstraint=eastwest;rotatable=0;whiteSpace=wrap;html=1;" vertex="1" parent="_7BOQMNdC7mZ4Bw1jB4Z-57">
          <mxGeometry y="30" width="230" height="30" as="geometry" />
        </mxCell>
        <mxCell id="_7BOQMNdC7mZ4Bw1jB4Z-105" value="" style="edgeStyle=elbowEdgeStyle;rounded=0;orthogonalLoop=1;jettySize=auto;html=1;fontSize=12;startSize=8;endSize=8;elbow=vertical;startArrow=block;startFill=1;" edge="1" parent="1" source="_7BOQMNdC7mZ4Bw1jB4Z-64" target="_7BOQMNdC7mZ4Bw1jB4Z-89">
          <mxGeometry relative="1" as="geometry">
            <mxPoint x="-229" y="1142" as="targetPoint" />
            <Array as="points">
              <mxPoint x="-215" y="1140" />
            </Array>
          </mxGeometry>
        </mxCell>
        <mxCell id="_7BOQMNdC7mZ4Bw1jB4Z-64" value="&lt;font style=&quot;font-size: 21px;&quot;&gt;人员操作&lt;br&gt;人脸识别&lt;br&gt;纳入日志&lt;/font&gt;" style="shape=process;whiteSpace=wrap;html=1;backgroundOutline=1;" vertex="1" parent="1">
          <mxGeometry x="-313" y="557.5" width="196" height="105" as="geometry" />
        </mxCell>
        <mxCell id="_7BOQMNdC7mZ4Bw1jB4Z-81" value="" style="edgeStyle=none;curved=1;rounded=0;orthogonalLoop=1;jettySize=auto;html=1;fontSize=12;startSize=8;endSize=8;" edge="1" parent="1" source="_7BOQMNdC7mZ4Bw1jB4Z-71" target="_7BOQMNdC7mZ4Bw1jB4Z-80">
          <mxGeometry relative="1" as="geometry" />
        </mxCell>
        <mxCell id="_7BOQMNdC7mZ4Bw1jB4Z-88" value="" style="edgeStyle=none;curved=1;rounded=0;orthogonalLoop=1;jettySize=auto;html=1;fontSize=12;startSize=8;endSize=8;" edge="1" parent="1" source="_7BOQMNdC7mZ4Bw1jB4Z-71" target="_7BOQMNdC7mZ4Bw1jB4Z-86">
          <mxGeometry relative="1" as="geometry" />
        </mxCell>
        <mxCell id="_7BOQMNdC7mZ4Bw1jB4Z-71" value="实验数据采集" style="swimlane;fontStyle=0;childLayout=stackLayout;horizontal=1;startSize=30;horizontalStack=0;resizeParent=1;resizeParentMax=0;resizeLast=0;collapsible=1;marginBottom=0;whiteSpace=wrap;html=1;" vertex="1" parent="1">
          <mxGeometry x="-10" y="840" width="230" height="120" as="geometry" />
        </mxCell>
        <mxCell id="_7BOQMNdC7mZ4Bw1jB4Z-72" value="由数据库完成&lt;div&gt;数据库被加密，无权限无法进入修改&lt;br&gt;&lt;br&gt;曲线分析、波形记录、拍照抓图&lt;/div&gt;" style="text;strokeColor=none;fillColor=none;align=left;verticalAlign=middle;spacingLeft=4;spacingRight=4;overflow=hidden;points=[[0,0.5],[1,0.5]];portConstraint=eastwest;rotatable=0;whiteSpace=wrap;html=1;" vertex="1" parent="_7BOQMNdC7mZ4Bw1jB4Z-71">
          <mxGeometry y="30" width="230" height="90" as="geometry" />
        </mxCell>
        <mxCell id="_7BOQMNdC7mZ4Bw1jB4Z-93" value="" style="edgeStyle=none;curved=1;rounded=0;orthogonalLoop=1;jettySize=auto;html=1;fontSize=12;startSize=8;endSize=8;" edge="1" parent="1" source="_7BOQMNdC7mZ4Bw1jB4Z-80" target="_7BOQMNdC7mZ4Bw1jB4Z-92">
          <mxGeometry relative="1" as="geometry" />
        </mxCell>
        <mxCell id="_7BOQMNdC7mZ4Bw1jB4Z-95" value="" style="edgeStyle=none;curved=1;rounded=0;orthogonalLoop=1;jettySize=auto;html=1;fontSize=12;startSize=8;endSize=8;" edge="1" parent="1" source="_7BOQMNdC7mZ4Bw1jB4Z-80" target="_7BOQMNdC7mZ4Bw1jB4Z-94">
          <mxGeometry relative="1" as="geometry" />
        </mxCell>
        <mxCell id="_7BOQMNdC7mZ4Bw1jB4Z-97" value="" style="edgeStyle=none;curved=1;rounded=0;orthogonalLoop=1;jettySize=auto;html=1;fontSize=12;startSize=8;endSize=8;" edge="1" parent="1" source="_7BOQMNdC7mZ4Bw1jB4Z-80" target="_7BOQMNdC7mZ4Bw1jB4Z-96">
          <mxGeometry relative="1" as="geometry" />
        </mxCell>
        <mxCell id="_7BOQMNdC7mZ4Bw1jB4Z-80" value="看板展示试验&lt;br&gt;&lt;br&gt;实验进度&lt;br&gt;实验状态&lt;br&gt;示波器" style="shape=process;whiteSpace=wrap;html=1;backgroundOutline=1;fontStyle=0;startSize=30;horizontal=1;" vertex="1" parent="1">
          <mxGeometry x="577" y="835" width="205" height="120" as="geometry" />
        </mxCell>
        <mxCell id="_7BOQMNdC7mZ4Bw1jB4Z-91" value="" style="edgeStyle=none;curved=1;rounded=0;orthogonalLoop=1;jettySize=auto;html=1;fontSize=12;startSize=8;endSize=8;" edge="1" parent="1" source="_7BOQMNdC7mZ4Bw1jB4Z-86" target="_7BOQMNdC7mZ4Bw1jB4Z-89">
          <mxGeometry relative="1" as="geometry" />
        </mxCell>
        <mxCell id="_7BOQMNdC7mZ4Bw1jB4Z-101" value="" style="edgeStyle=orthogonalEdgeStyle;rounded=0;orthogonalLoop=1;jettySize=auto;html=1;fontSize=12;startSize=8;endSize=8;" edge="1" parent="1" source="_7BOQMNdC7mZ4Bw1jB4Z-86" target="_7BOQMNdC7mZ4Bw1jB4Z-35">
          <mxGeometry relative="1" as="geometry">
            <mxPoint x="106" y="1070" as="sourcePoint" />
            <mxPoint x="421" y="539.9999999999998" as="targetPoint" />
            <Array as="points">
              <mxPoint x="105" y="1070" />
              <mxPoint x="420" y="1070" />
            </Array>
          </mxGeometry>
        </mxCell>
        <mxCell id="_7BOQMNdC7mZ4Bw1jB4Z-102" value="将委托单至为历史" style="edgeLabel;html=1;align=center;verticalAlign=middle;resizable=0;points=[];fontSize=12;" vertex="1" connectable="0" parent="_7BOQMNdC7mZ4Bw1jB4Z-101">
          <mxGeometry x="0.4511" y="4" relative="1" as="geometry">
            <mxPoint x="14" y="39" as="offset" />
          </mxGeometry>
        </mxCell>
        <mxCell id="_7BOQMNdC7mZ4Bw1jB4Z-108" value="" style="edgeStyle=orthogonalEdgeStyle;rounded=0;orthogonalLoop=1;jettySize=auto;html=1;fontSize=12;startSize=8;endSize=8;startArrow=classicThin;startFill=1;" edge="1" parent="1" source="_7BOQMNdC7mZ4Bw1jB4Z-86" target="_7BOQMNdC7mZ4Bw1jB4Z-107">
          <mxGeometry relative="1" as="geometry" />
        </mxCell>
        <mxCell id="_7BOQMNdC7mZ4Bw1jB4Z-86" value="实验报告" style="swimlane;fontStyle=0;childLayout=stackLayout;horizontal=1;startSize=30;horizontalStack=0;resizeParent=1;resizeParentMax=0;resizeLast=0;collapsible=1;marginBottom=0;whiteSpace=wrap;html=1;" vertex="1" parent="1">
          <mxGeometry x="-10" y="990" width="230" height="70" as="geometry" />
        </mxCell>
        <mxCell id="_7BOQMNdC7mZ4Bw1jB4Z-87" value="曲线分析、波形记录、拍照抓图" style="text;strokeColor=none;fillColor=none;align=left;verticalAlign=middle;spacingLeft=4;spacingRight=4;overflow=hidden;points=[[0,0.5],[1,0.5]];portConstraint=eastwest;rotatable=0;whiteSpace=wrap;html=1;" vertex="1" parent="_7BOQMNdC7mZ4Bw1jB4Z-86">
          <mxGeometry y="30" width="230" height="40" as="geometry" />
        </mxCell>
        <mxCell id="_7BOQMNdC7mZ4Bw1jB4Z-109" value="" style="edgeStyle=orthogonalEdgeStyle;rounded=0;orthogonalLoop=1;jettySize=auto;html=1;fontSize=12;startSize=8;endSize=8;startArrow=block;startFill=1;" edge="1" parent="1" source="_7BOQMNdC7mZ4Bw1jB4Z-89" target="_7BOQMNdC7mZ4Bw1jB4Z-107">
          <mxGeometry relative="1" as="geometry" />
        </mxCell>
        <mxCell id="_7BOQMNdC7mZ4Bw1jB4Z-89" value="实验报告审批" style="swimlane;fontStyle=0;childLayout=stackLayout;horizontal=1;startSize=30;horizontalStack=0;resizeParent=1;resizeParentMax=0;resizeLast=0;collapsible=1;marginBottom=0;whiteSpace=wrap;html=1;" vertex="1" parent="1">
          <mxGeometry x="-10" y="1110" width="230" height="70" as="geometry" />
        </mxCell>
        <mxCell id="_7BOQMNdC7mZ4Bw1jB4Z-90" value="曲线分析、波形记录、拍照抓图" style="text;strokeColor=none;fillColor=none;align=left;verticalAlign=middle;spacingLeft=4;spacingRight=4;overflow=hidden;points=[[0,0.5],[1,0.5]];portConstraint=eastwest;rotatable=0;whiteSpace=wrap;html=1;" vertex="1" parent="_7BOQMNdC7mZ4Bw1jB4Z-89">
          <mxGeometry y="30" width="230" height="40" as="geometry" />
        </mxCell>
        <mxCell id="_7BOQMNdC7mZ4Bw1jB4Z-92" value="DashBoard看板&lt;br&gt;&lt;br&gt;&lt;div&gt;展示六个工位整体的情况&lt;br&gt;&lt;br&gt;样件管理&lt;/div&gt;" style="shape=process;whiteSpace=wrap;html=1;backgroundOutline=1;fontStyle=0;startSize=30;horizontal=1;" vertex="1" parent="1">
          <mxGeometry x="839" y="693" width="205" height="120" as="geometry" />
        </mxCell>
        <mxCell id="_7BOQMNdC7mZ4Bw1jB4Z-94" value="试验员操作看板&lt;br&gt;&lt;br&gt;当前委托单情况&lt;br&gt;&lt;br&gt;示波器状态" style="shape=process;whiteSpace=wrap;html=1;backgroundOutline=1;fontStyle=0;startSize=30;horizontal=1;" vertex="1" parent="1">
          <mxGeometry x="839" y="985" width="205" height="120" as="geometry" />
        </mxCell>
        <mxCell id="_7BOQMNdC7mZ4Bw1jB4Z-96" value="委托单看板&lt;br&gt;&lt;br&gt;展示所有委托单状态" style="shape=process;whiteSpace=wrap;html=1;backgroundOutline=1;fontStyle=0;startSize=30;horizontal=1;" vertex="1" parent="1">
          <mxGeometry x="839" y="840" width="205" height="120" as="geometry" />
        </mxCell>
        <mxCell id="_7BOQMNdC7mZ4Bw1jB4Z-98" style="edgeStyle=none;curved=1;rounded=0;orthogonalLoop=1;jettySize=auto;html=1;exitX=1;exitY=0.5;exitDx=0;exitDy=0;entryX=0.5;entryY=0;entryDx=0;entryDy=0;fontSize=12;startSize=8;endSize=8;" edge="1" parent="1" source="_7BOQMNdC7mZ4Bw1jB4Z-43" target="_7BOQMNdC7mZ4Bw1jB4Z-92">
          <mxGeometry relative="1" as="geometry">
            <Array as="points">
              <mxPoint x="900" y="625" />
            </Array>
          </mxGeometry>
        </mxCell>
        <mxCell id="_7BOQMNdC7mZ4Bw1jB4Z-107" value="压缩机抓拍" style="ellipse;whiteSpace=wrap;html=1;fontStyle=0;startSize=30;horizontal=1;" vertex="1" parent="1">
          <mxGeometry x="497" y="985" width="80" height="80" as="geometry" />
        </mxCell>
      </root>
    </mxGraphModel>
  </diagram>
</mxfile>
